{
	"asset":{
		"version":"2.0",
		"generator":"Created using the official Cinema 4D glTF Exporter 1.000x290161"
	},
	"scenes":[{
		"nodes":[0,
		2]
	}],
	"nodes":[{
		"name":"joint_0",
		"translation":[0.0,
		0.0,
		0.0],
		"rotation":[0.0,
		-0.7273727059364319,
		0.0,
		-0.6862425804138184],
		"scale":[1.0,
		1.0,
		1.0],
		"children":[1]
	},
	{
		"name":"joint_1",
		"translation":[1032.2952880859376,
		0.0,
		0.0],
		"rotation":[0.0,
		0.0,
		0.0,
		-1.0],
		"scale":[1.0,
		1.0,
		1.0]
	},
	{
		"name":"Cube",
		"mesh":0,
		"skin":0
	}],
	"meshes":[{
		"primitives":[{
			"attributes":{
				"POSITION":13,
				"NORMAL":14,
				"TEXCOORD_0":15,
				"JOINTS_0":16,
				"WEIGHTS_0":17
			},
			"indices":12,
			"material":0
		}]
	}],
	"skins":[{
		"inverseBindMatrices":18,
		"joints":[1]
	}],
	"accessors":[{
		"max":[3.0],
		"bufferView":0,
		"type":"SCALAR",
		"componentType":5126,
		"count":2,
		"byteOffset":0,
		"min":[0.0]
	},
	{
		"max":[0.0,
		0.0,
		0.0],
		"bufferView":0,
		"type":"VEC3",
		"componentType":5126,
		"count":2,
		"byteOffset":8,
		"min":[0.0,
		0.0,
		0.0]
	},
	{
		"max":[3.0],
		"bufferView":1,
		"type":"SCALAR",
		"componentType":5126,
		"count":5,
		"byteOffset":0,
		"min":[0.0]
	},
	{
		"max":[0.0,
		0.0,
		0.0,
		1.0],
		"bufferView":1,
		"type":"VEC4",
		"componentType":5126,
		"count":5,
		"byteOffset":20,
		"min":[0.0,
		-1.0,
		0.0,
		-1.0]
	},
	{
		"max":[3.0],
		"bufferView":2,
		"type":"SCALAR",
		"componentType":5126,
		"count":2,
		"byteOffset":0,
		"min":[0.0]
	},
	{
		"max":[1.0,
		1.0,
		1.0],
		"bufferView":2,
		"type":"VEC3",
		"componentType":5126,
		"count":2,
		"byteOffset":8,
		"min":[1.0,
		1.0,
		1.0]
	},
	{
		"max":[3.0],
		"bufferView":3,
		"type":"SCALAR",
		"componentType":5126,
		"count":2,
		"byteOffset":0,
		"min":[0.0]
	},
	{
		"max":[1032.2952880859376,
		0.0,
		0.0],
		"bufferView":3,
		"type":"VEC3",
		"componentType":5126,
		"count":2,
		"byteOffset":8,
		"min":[1032.2952880859376,
		0.0,
		0.0]
	},
	{
		"max":[3.0],
		"bufferView":4,
		"type":"SCALAR",
		"componentType":5126,
		"count":2,
		"byteOffset":0,
		"min":[0.0]
	},
	{
		"max":[0.0,
		0.0,
		0.0,
		-1.0],
		"bufferView":4,
		"type":"VEC4",
		"componentType":5126,
		"count":2,
		"byteOffset":8,
		"min":[0.0,
		0.0,
		0.0,
		-1.0]
	},
	{
		"max":[3.0],
		"bufferView":5,
		"type":"SCALAR",
		"componentType":5126,
		"count":2,
		"byteOffset":0,
		"min":[0.0]
	},
	{
		"max":[1.0,
		1.0,
		1.0],
		"bufferView":5,
		"type":"VEC3",
		"componentType":5126,
		"count":2,
		"byteOffset":8,
		"min":[1.0,
		1.0,
		1.0]
	},
	{
		"max":[23],
		"bufferView":6,
		"type":"SCALAR",
		"componentType":5123,
		"count":36,
		"byteOffset":0,
		"min":[0]
	},
	{
		"max":[45.625160217285159,
		100.0,
		-924.9039306640625],
		"bufferView":7,
		"type":"VEC3",
		"componentType":5126,
		"count":24,
		"byteOffset":0,
		"min":[-165.66493225097657,
		-100.0,
		-1136.1939697265626]
	},
	{
		"max":[0.9983083009719849,
		1.0,
		0.9983084201812744],
		"bufferView":7,
		"type":"VEC3",
		"componentType":5126,
		"count":24,
		"byteOffset":12,
		"min":[-0.9983083009719849,
		-1.0,
		-0.9983084201812744]
	},
	{
		"max":[1.0,
		1.0],
		"bufferView":7,
		"type":"VEC2",
		"componentType":5126,
		"count":24,
		"byteOffset":24,
		"min":[0.0,
		0.0]
	},
	{
		"max":[0,
		0,
		0,
		0],
		"bufferView":8,
		"type":"VEC4",
		"componentType":5123,
		"count":24,
		"byteOffset":0,
		"min":[0,
		0,
		0,
		0]
	},
	{
		"max":[1.0,
		0.0,
		0.0,
		0.0],
		"bufferView":9,
		"type":"VEC4",
		"componentType":5126,
		"count":24,
		"byteOffset":0,
		"min":[1.0,
		0.0,
		0.0,
		0.0]
	},
	{
		"max":[-0.05814217031002045,
		0.0,
		0.9983083009719849,
		0.0,
		0.0,
		1.0,
		0.0,
		0.0,
		-0.9983083009719849,
		0.0,
		-0.05814217031002045,
		0.0,
		-1032.2952880859376,
		0.0,
		1.3784529073745944e-12,
		1.0],
		"bufferView":10,
		"type":"MAT4",
		"componentType":5126,
		"count":1,
		"byteOffset":0,
		"min":[-0.05814217031002045,
		0.0,
		0.9983083009719849,
		0.0,
		0.0,
		1.0,
		0.0,
		0.0,
		-0.9983083009719849,
		0.0,
		-0.05814217031002045,
		0.0,
		-1032.2952880859376,
		0.0,
		1.3784529073745944e-12,
		1.0]
	}],
	"bufferViews":[{
		"buffer":0,
		"byteOffset":0,
		"byteLength":32
	},
	{
		"buffer":0,
		"byteOffset":32,
		"byteLength":100
	},
	{
		"buffer":0,
		"byteOffset":132,
		"byteLength":32
	},
	{
		"buffer":1,
		"byteOffset":0,
		"byteLength":32
	},
	{
		"buffer":1,
		"byteOffset":32,
		"byteLength":40
	},
	{
		"buffer":1,
		"byteOffset":72,
		"byteLength":32
	},
	{
		"buffer":2,
		"byteOffset":0,
		"byteLength":72,
		"target":34963
	},
	{
		"buffer":2,
		"byteOffset":72,
		"byteLength":768,
		"target":34962,
		"byteStride":32
	},
	{
		"buffer":2,
		"byteOffset":840,
		"byteLength":192,
		"target":34962
	},
	{
		"buffer":2,
		"byteOffset":1032,
		"byteLength":384,
		"target":34962
	},
	{
		"buffer":3,
		"byteOffset":0,
		"byteLength":64
	}],
	"buffers":[{
		"uri":"data:application/octet-stream;base64,",
		"byteLength":164
	},
	{
		"uri":"data:application/octet-stream;base64,",
		"byteLength":104
	},
	{
		"uri":"data:application/octet-stream;base64,",
		"byteLength":1416
	},
	{
		"uri":"data:application/octet-stream;base64,",
		"byteLength":64
	}],
	"materials":[{
		"pbrMetallicRoughness":{
			"baseColorFactor":[1.0,
			1.0,
			1.0,
			1.0],
			"metallicFactor":1.0,
			"roughnessFactor":1.0
		},
		"emissiveFactor":[0.0,
		0.0,
		0.0],
		"alphaMode":"OPAQUE",
		"doubleSided":true,
		"name":""
	}],
	"animations":[{
		"samplers":[{
			"input":0,
			"interpolation":"LINEAR",
			"output":1
		},
		{
			"input":2,
			"interpolation":"LINEAR",
			"output":3
		},
		{
			"input":4,
			"interpolation":"LINEAR",
			"output":5
		},
		{
			"input":6,
			"interpolation":"LINEAR",
			"output":7
		},
		{
			"input":8,
			"interpolation":"LINEAR",
			"output":9
		},
		{
			"input":10,
			"interpolation":"LINEAR",
			"output":11
		}],
		"channels":[{
			"sampler":0,
			"target":{
				"node":0,
				"path":"translation"
			}
		},
		{
			"sampler":1,
			"target":{
				"node":0,
				"path":"rotation"
			}
		},
		{
			"sampler":2,
			"target":{
				"node":0,
				"path":"scale"
			}
		},
		{
			"sampler":3,
			"target":{
				"node":1,
				"path":"translation"
			}
		},
		{
			"sampler":4,
			"target":{
				"node":1,
				"path":"rotation"
			}
		},
		{
			"sampler":5,
			"target":{
				"node":1,
				"path":"scale"
			}
		}]
	}]
}